<svg xmlns="http://www.w3.org/2000/svg" width="640" height="640" viewBox="0 0 640 640">
  <rect width="640" height="640" rx="140" fill="#e8eef7"/>
  <g transform="translate(-14,26)" fill="#000000">
    <path d="M80.915657,368.999817 C80.915634,291.253296 80.915634,214.006729 80.915634,136.760178 C81.522720,136.479919 82.129807,136.199661 82.736885,135.919403 C111.397469,169.800476 140.058060,203.681564 169.506760,238.494324 C207.263611,173.827911 244.519501,110.019516 281.775391,46.211117 C282.348572,46.313461 282.921753,46.415806 283.494934,46.518150 C300.753174,139.460266 318.011444,232.402374 335.269714,325.344482 C335.696381,325.424835 336.123016,325.505188 336.549652,325.585541 C359.021820,258.853577 381.493988,192.121628 403.966187,125.389671 C404.498718,125.398453 405.031281,125.407234 405.563843,125.416016 C423.646637,169.639648 441.729462,213.863281 460.309174,259.302155 C498.641418,217.741974 536.126892,177.099808 573.582825,136.489731 C575.756958,138.074646 575.146301,139.696274 575.110718,141.088104 C574.446960,167.061066 573.729736,193.032639 573.041565,219.004990 C572.048889,256.468109 571.102173,293.932465 570.071899,331.394501 C569.582031,349.207672 568.793945,367.014160 568.477844,384.829620 C568.397339,389.370483 566.725952,390.814240 562.538635,390.306885 C561.223999,390.147614 559.872437,390.210083 558.542847,390.274506 C555.806885,390.407043 554.695862,389.173126 554.642639,386.421326 C554.536560,380.929260 554.098022,375.444092 553.963989,369.951996 C553.150879,336.644653 552.439575,303.334686 551.584534,270.028442 C550.991028,246.910202 550.221436,223.796478 548.950134,200.227951 C516.993652,236.437012 484.490723,272.082703 450.996674,308.628448 C436.811493,273.064270 423.009857,238.461761 409.208221,203.859222 C408.616760,203.926605 408.025299,203.993988 407.433838,204.061371 C381.917572,261.220520 356.401306,318.379669 330.885010,375.538788 C330.420349,375.499634 329.955688,375.460480 329.491028,375.421295 C306.893860,291.435516 287.753021,206.618973 269.482697,121.438354 C238.313919,176.115326 208.915924,231.471649 177.000641,287.074127 C152.628143,257.829132 129.037247,229.522003 104.640968,200.248489 C104.186852,207.942352 103.623314,214.452545 103.448059,220.973160 C102.584267,253.110672 102.047089,285.258575 100.949455,317.387604 C100.187370,339.694885 99.262444,361.994995 99.178040,384.316315 C99.161400,388.716766 97.785973,390.530579 93.075821,390.372589 C79.395630,389.913879 81.063248,392.105255 80.924339,378.494812 C80.893745,375.496735 80.917145,372.498138 80.915657,368.999817 z"/>
    <path d="M418.000122,523.622803 C461.487213,523.628479 504.474335,523.634583 547.461426,523.640259 C553.731750,523.641113 553.859314,523.530945 553.889648,517.175354 C553.922302,510.344238 554.096741,503.506592 553.859741,496.683960 C553.705444,492.243164 555.571289,490.882996 559.791626,490.950745 C573.465454,491.170288 571.154297,490.041870 571.286316,502.408386 C571.407288,513.737000 571.311951,525.067993 571.298767,536.397888 C571.290894,543.202332 571.279602,543.221985 564.354431,543.222290 C454.054138,543.227478 343.753815,543.227356 233.453506,543.228455 C184.968033,543.228882 136.482544,543.233215 87.997070,543.225464 C81.110870,543.224304 80.925629,543.059265 80.914253,536.289673 C80.892136,523.127197 81.018425,509.963654 80.881577,496.802673 C80.837509,492.565521 82.311752,490.852661 86.708763,490.931366 C101.559235,491.197174 99.160622,489.472168 99.102257,503.327240 C99.079178,508.806946 97.960167,514.234131 98.218796,519.759583 C98.347580,522.510864 99.329414,523.736938 102.095268,523.625793 C104.424065,523.532227 106.759712,523.610352 109.092323,523.610474 C211.894913,523.614868 314.697510,523.618958 418.000122,523.622803 z"/>
    <path d="M73.222824,414.146027 C85.105034,405.505829 97.354729,404.171509 109.987083,411.202057 C121.808014,417.781036 127.399193,428.329803 127.212090,441.667328 C126.974411,458.609894 113.153008,472.862976 95.088852,473.822723 C81.482040,474.545624 65.886566,466.091431 61.680031,447.896393 C58.577400,434.476288 62.689400,423.364227 73.222824,414.146027 z"/>
    <path d="M359.110779,428.205200 C366.766998,448.282867 354.406128,471.020081 330.069305,473.998108 C316.329742,475.679443 299.100555,463.131439 295.907990,449.087769 C291.364380,429.100830 302.236877,411.910187 322.282623,407.386505 C336.518372,404.173950 351.798584,412.682068 359.110779,428.205200 z"/>
    <path d="M446.670837,406.835114 C466.196655,410.620483 477.544403,423.501007 477.210388,441.033875 C476.881439,458.300140 462.628662,473.574249 444.579346,473.828064 C428.281311,474.057251 414.203583,463.743256 411.086548,445.428894 C408.168976,428.286469 419.248810,411.880585 435.844116,407.851044 C439.244293,407.025452 442.697052,406.463470 446.670837,406.835114 z"/>
    <path d="M169.788010,435.963501 C173.330322,416.319702 188.193405,407.548096 201.112579,406.849426 C219.034653,405.880219 233.453506,418.760956 235.929413,437.679291 C237.954056,453.149475 225.912918,469.269135 209.796860,472.952484 C187.693344,478.004303 167.232468,458.594849 169.788010,435.963501 z"/>
    <path d="M523.097656,430.442871 C527.689026,415.550385 542.001770,405.780609 557.241089,406.842224 C572.147461,407.880646 584.519836,419.546448 587.444885,434.374451 C591.209534,453.458679 576.963501,474.021851 554.722534,473.719360 C528.697510,473.365448 517.160278,449.016785 523.097656,430.442871 z"/>
  </g>
</svg>
