<svg version="1.1" id="Layer_1" xmlns="http://www.w3.org/2000/svg" xmlns:xlink="http://www.w3.org/1999/xlink" x="0px" y="0px"
	 width="640" height="640" viewBox="0 0 640 640" enable-background="new 0 0 640 640" xml:space="preserve">
<path fill="#000000" opacity="1.000000" stroke="none" 
	d="
M80.915657,368.999817 
	C80.915634,291.253296 80.915634,214.006729 80.915634,136.760178 
	C81.522720,136.479919 82.129807,136.199661 82.736885,135.919403 
	C111.397469,169.800476 140.058060,203.681564 169.506760,238.494324 
	C207.263611,173.827911 244.519501,110.019516 281.775391,46.211117 
	C282.348572,46.313461 282.921753,46.415806 283.494934,46.518150 
	C300.753174,139.460266 318.011444,232.402374 335.269714,325.344482 
	C335.696381,325.424835 336.123016,325.505188 336.549652,325.585541 
	C359.021820,258.853577 381.493988,192.121628 403.966187,125.389671 
	C404.498718,125.398453 405.031281,125.407234 405.563843,125.416016 
	C423.646637,169.639648 441.729462,213.863281 460.309174,259.302155 
	C498.641418,217.741974 536.126892,177.099808 573.582825,136.489731 
	C575.756958,138.074646 575.146301,139.696274 575.110718,141.088104 
	C574.446960,167.061066 573.729736,193.032639 573.041565,219.004990 
	C572.048889,256.468109 571.102173,293.932465 570.071899,331.394501 
	C569.582031,349.207672 568.793945,367.014160 568.477844,384.829620 
	C568.397339,389.370483 566.725952,390.814240 562.538635,390.306885 
	C561.223999,390.147614 559.872437,390.210083 558.542847,390.274506 
	C555.806885,390.407043 554.695862,389.173126 554.642639,386.421326 
	C554.536560,380.929260 554.098022,375.444092 553.963989,369.951996 
	C553.150879,336.644653 552.439575,303.334686 551.584534,270.028442 
	C550.991028,246.910202 550.221436,223.796478 548.950134,200.227951 
	C516.993652,236.437012 484.490723,272.082703 450.996674,308.628448 
	C436.811493,273.064270 423.009857,238.461761 409.208221,203.859222 
	C408.616760,203.926605 408.025299,203.993988 407.433838,204.061371 
	C381.917572,261.220520 356.401306,318.379669 330.885010,375.538788 
	C330.420349,375.499634 329.955688,375.460480 329.491028,375.421295 
	C306.893860,291.435516 287.753021,206.618973 269.482697,121.438354 
	C238.313919,176.115326 208.915924,231.471649 177.000641,287.074127 
	C152.628143,257.829132 129.037247,229.522003 104.640968,200.248489 
	C104.186852,207.942352 103.623314,214.452545 103.448059,220.973160 
	C102.584267,253.110672 102.047089,285.258575 100.949455,317.387604 
	C100.187370,339.694885 99.262444,361.994995 99.178040,384.316315 
	C99.161400,388.716766 97.785973,390.530579 93.075821,390.372589 
	C79.395630,389.913879 81.063248,392.105255 80.924339,378.494812 
	C80.893745,375.496735 80.917145,372.498138 80.915657,368.999817 
z"/>
<path fill="#000000" opacity="1.000000" stroke="none" 
	d="
M418.000122,523.622803 
	C461.487213,523.628479 504.474335,523.634583 547.461426,523.640259 
	C553.731750,523.641113 553.859314,523.530945 553.889648,517.175354 
	C553.922302,510.344238 554.096741,503.506592 553.859741,496.683960 
	C553.705444,492.243164 555.571289,490.882996 559.791626,490.950745 
	C573.465454,491.170288 571.154297,490.041870 571.286316,502.408386 
	C571.407288,513.737000 571.311951,525.067993 571.298767,536.397888 
	C571.290894,543.202332 571.279602,543.221985 564.354431,543.222290 
	C454.054138,543.227478 343.753815,543.227356 233.453506,543.228455 
	C184.968033,543.228882 136.482544,543.233215 87.997070,543.225464 
	C81.110870,543.224304 80.925629,543.059265 80.914253,536.289673 
	C80.892136,523.127197 81.018425,509.963654 80.881577,496.802673 
	C80.837509,492.565521 82.311752,490.852661 86.708763,490.931366 
	C101.559235,491.197174 99.160622,489.472168 99.102257,503.327240 
	C99.079178,508.806946 97.960167,514.234131 98.218796,519.759583 
	C98.347580,522.510864 99.329414,523.736938 102.095268,523.625793 
	C104.424065,523.532227 106.759712,523.610352 109.092323,523.610474 
	C211.894913,523.614868 314.697510,523.618958 418.000122,523.622803 
z"/>
<path fill="#000000" opacity="1.000000" stroke="none" 
	d="
M73.222824,414.146027 
	C85.105034,405.505829 97.354729,404.171509 109.987083,411.202057 
	C121.808014,417.781036 127.399193,428.329803 127.212090,441.667328 
	C126.974411,458.609894 113.153008,472.862976 95.088852,473.822723 
	C81.482040,474.545624 65.886566,466.091431 61.680031,447.896393 
	C58.577400,434.476288 62.689400,423.364227 73.222824,414.146027 
z"/>
<path fill="#000000" opacity="1.000000" stroke="none" 
	d="
M359.110779,428.205200 
	C366.766998,448.282867 354.406128,471.020081 330.069305,473.998108 
	C316.329742,475.679443 299.100555,463.131439 295.907990,449.087769 
	C291.364380,429.100830 302.236877,411.910187 322.282623,407.386505 
	C336.518372,404.173950 351.798584,412.682068 359.110779,428.205200 
z"/>
<path fill="#000000" opacity="1.000000" stroke="none" 
	d="
M446.670837,406.835114 
	C466.196655,410.620483 477.544403,423.501007 477.210388,441.033875 
	C476.881439,458.300140 462.628662,473.574249 444.579346,473.828064 
	C428.281311,474.057251 414.203583,463.743256 411.086548,445.428894 
	C408.168976,428.286469 419.248810,411.880585 435.844116,407.851044 
	C439.244293,407.025452 442.697052,406.463470 446.670837,406.835114 
z"/>
<path fill="#000000" opacity="1.000000" stroke="none" 
	d="
M169.788010,435.963501 
	C173.330322,416.319702 188.193405,407.548096 201.112579,406.849426 
	C219.034653,405.880219 233.453506,418.760956 235.929413,437.679291 
	C237.954056,453.149475 225.912918,469.269135 209.796860,472.952484 
	C187.693344,478.004303 167.232468,458.594849 169.788010,435.963501 
z"/>
<path fill="#000000" opacity="1.000000" stroke="none" 
	d="
M523.097656,430.442871 
	C527.689026,415.550385 542.001770,405.780609 557.241089,406.842224 
	C572.147461,407.880646 584.519836,419.546448 587.444885,434.374451 
	C591.209534,453.458679 576.963501,474.021851 554.722534,473.719360 
	C528.697510,473.365448 517.160278,449.016785 523.097656,430.442871 
z"/>
<path fill="#000000" opacity="1.000000" stroke="none" 
	d="
M90.584976,598.827393 
	C86.314926,599.915344 84.649918,598.435608 84.737633,594.395386 
	C84.889336,587.407227 84.739357,580.412964 84.788704,573.421814 
	C84.802383,571.482910 84.501778,569.246338 87.344337,568.781189 
	C89.936897,568.357056 91.825417,569.038574 92.992172,571.634583 
	C94.678261,575.386169 96.589897,579.036377 98.854866,583.644409 
	C100.966255,579.254517 102.812859,575.782288 104.319687,572.168396 
	C105.572258,569.164307 107.660782,568.153503 110.639999,568.809387 
	C113.681564,569.479065 112.969543,572.062927 112.990417,574.101074 
	C113.060310,580.925232 113.027977,587.750793 113.003181,594.575684 
	C112.994255,597.031189 112.806236,599.290344 109.374741,599.280518 
	C105.983116,599.270813 105.731232,597.131653 105.758545,594.601257 
	C105.789032,591.777100 105.765533,588.952454 105.058159,585.774536 
	C104.273277,587.214722 103.450340,588.635681 102.713524,590.099976 
	C101.863701,591.788879 100.989326,593.302856 98.721741,593.290771 
	C96.439034,593.278625 95.616982,591.670837 94.766273,590.025635 
	C94.094421,588.726257 93.444748,587.415405 92.508125,585.561035 
	C91.238899,590.249390 93.167603,594.698547 90.584976,598.827393 
z"/>
<path fill="#000000" opacity="1.000000" stroke="none" 
	d="
M375.185181,598.374390 
	C373.961823,594.701111 375.337341,591.061829 373.576385,587.501892 
	C370.932526,589.118042 371.098663,594.401917 366.577362,593.189514 
	C362.861877,592.193115 363.239655,587.849060 360.313385,584.842346 
	C360.313385,588.921936 360.298645,592.170227 360.318359,595.418457 
	C360.332367,597.725403 359.634308,599.267883 356.926758,599.223450 
	C354.189087,599.178528 353.666260,597.530029 353.672668,595.273682 
	C353.693848,587.797546 353.653656,580.321106 353.690704,572.845093 
	C353.699554,571.058044 353.455017,569.013977 356.149445,568.761597 
	C358.449707,568.546143 360.333740,568.806702 361.440857,571.335022 
	C363.095886,575.114563 365.041748,578.766724 367.185425,583.127136 
	C369.942383,579.880127 371.135590,576.474854 372.480865,573.255920 
	C373.750336,570.218506 375.121857,567.867493 378.939301,568.596558 
	C382.942108,569.361145 381.161255,572.552795 381.238251,574.661377 
	C381.474487,581.131958 381.172211,587.621582 381.381195,594.093994 
	C381.529602,598.690125 379.843964,600.295532 375.185181,598.374390 
z"/>
<path fill="#000000" opacity="1.000000" stroke="none" 
	d="
M206.494888,605.832520 
	C202.952606,607.472839 199.699524,607.718079 196.468353,606.271362 
	C194.991531,605.610107 193.069107,604.876770 193.770294,602.738586 
	C194.336700,601.011414 195.905151,600.300842 197.799683,600.537170 
	C200.589645,600.885193 203.469055,601.381775 204.625992,597.657227 
	C204.101044,597.407837 203.799118,597.127930 203.532822,597.158447 
	C199.840073,597.582336 195.952240,598.221375 193.774796,594.208496 
	C191.322662,589.689270 191.530106,584.872314 193.503235,580.237976 
	C194.476074,577.953064 196.559036,576.780884 199.117569,576.698181 
	C202.237640,576.597412 205.331497,577.268311 208.495865,576.595703 
	C210.690689,576.129089 211.277939,577.851013 211.274475,579.741821 
	C211.263168,585.902283 211.324738,592.063782 211.222336,598.222717 
	C211.168777,601.444092 209.576508,603.915466 206.494888,605.832520 
M200.732651,591.325134 
	C205.217957,591.611938 204.718918,588.416565 204.555344,585.654358 
	C204.449982,583.875183 203.386337,582.125061 201.481415,582.589783 
	C198.156937,583.401001 199.136765,586.411377 199.154099,588.744080 
	C199.159515,589.472290 199.777130,590.195984 200.732651,591.325134 
z"/>
<path fill="#000000" opacity="1.000000" stroke="none" 
	d="
M517.585327,598.086853 
	C512.480530,600.040161 507.899994,599.944763 504.402985,595.904114 
	C500.894867,591.850525 500.924591,587.021240 502.944214,582.282776 
	C504.918762,577.650208 509.436859,575.667908 514.546082,576.866577 
	C518.711548,577.843811 521.907959,581.992676 522.015747,586.415588 
	C522.077209,588.940979 520.836060,590.127319 518.432373,590.171326 
	C515.479797,590.225281 512.525513,590.184143 508.711823,590.184143 
	C510.787903,593.485901 513.110596,593.093994 515.209900,592.462036 
	C517.455750,591.785828 519.282471,592.014343 520.288330,594.157532 
	C521.306091,596.326233 519.131897,596.901001 517.585327,598.086853 
z"/>
<path fill="#000000" opacity="1.000000" stroke="none" 
	d="
M160.716187,598.760254 
	C157.278427,599.717041 154.239120,598.564026 151.048920,599.094299 
	C146.645203,599.826233 143.381393,596.898010 142.926514,592.932129 
	C142.464661,588.905457 144.951828,586.028442 149.577866,585.161133 
	C150.989456,584.896545 152.587799,585.415100 154.066696,583.971802 
	C152.799301,582.125854 151.211700,582.353943 149.459351,583.027283 
	C147.125000,583.924377 145.393539,582.894836 144.692596,580.800659 
	C143.987183,578.693176 146.067245,577.981812 147.465637,577.294861 
	C154.451477,573.863159 161.776703,578.050720 161.958435,585.800232 
	C162.057602,590.028748 163.007523,594.405090 160.716187,598.760254 
M151.771530,590.317200 
	C150.569580,590.557373 149.375824,590.919983 149.983200,592.503235 
	C150.397400,593.582947 151.469315,593.698425 152.483368,593.435242 
	C153.585754,593.149109 154.935135,592.822083 154.781448,591.379211 
	C154.643158,590.081116 153.325287,590.390442 151.771530,590.317200 
z"/>
<path fill="#000000" opacity="1.000000" stroke="none" 
	d="
M414.101013,581.714478 
	C413.244843,580.505981 413.239990,579.518494 414.099731,578.777100 
	C417.504974,575.840698 421.510590,576.258972 425.422943,577.143005 
	C428.882843,577.924866 430.796814,580.495117 431.018982,583.939758 
	C431.274506,587.900757 431.137054,591.889221 431.106995,595.865295 
	C431.095154,597.432129 430.738647,599.075500 428.804749,599.110474 
	C424.885803,599.181458 420.908112,599.383545 417.057556,598.823792 
	C413.766876,598.345459 412.050323,595.646973 411.920685,592.345581 
	C411.787811,588.961609 413.618134,586.655823 416.780151,585.635193 
	C418.736542,585.003723 420.827911,584.790588 423.100769,584.341858 
	C420.515472,580.931885 416.506775,585.242310 414.101013,581.714478 
M420.100861,593.134827 
	C421.720978,593.140625 423.464325,593.379578 423.980682,591.154053 
	C419.729889,590.032288 419.729889,590.032288 420.100861,593.134827 
z"/>
<path fill="#000000" opacity="1.000000" stroke="none" 
	d="
M560.752014,599.270203 
	C558.158142,599.292175 555.979736,599.323425 553.956909,598.411499 
	C552.466187,597.739441 550.462341,597.119995 550.897522,595.078796 
	C551.320496,593.094849 553.095642,592.325012 555.158447,592.524292 
	C557.508728,592.751465 559.938049,593.553345 562.342224,591.930664 
	C560.633179,589.372742 558.151733,590.263916 556.222900,589.646667 
	C553.384888,588.738403 551.504333,587.184448 551.252991,584.154541 
	C551.006775,581.186707 552.435486,579.024902 555.029785,577.704468 
	C558.326050,576.026794 561.807251,576.259705 565.221680,577.205017 
	C566.596313,577.585571 568.393311,578.288452 567.860291,580.199890 
	C567.398865,581.854797 566.006104,582.980835 564.082275,582.805664 
	C562.058472,582.621399 559.963806,581.647888 557.447144,583.828430 
	C562.607422,585.989441 570.453796,584.534973 569.242981,593.159485 
	C568.617004,597.619080 564.924316,598.603516 560.752014,599.270203 
z"/>
<path fill="#000000" opacity="1.000000" stroke="none" 
	d="
M470.215698,592.535522 
	C472.520905,593.964783 473.194519,595.706604 472.459930,597.873230 
	C472.003082,599.220764 470.704437,599.252869 469.528137,599.250000 
	C466.878265,599.243591 464.429749,598.507385 463.261169,595.979187 
	C462.595581,594.539124 462.599884,592.757568 462.453003,591.116394 
	C462.151764,587.750183 462.258148,584.594299 460.539581,581.181580 
	C458.989777,578.103821 462.489899,574.520447 463.653839,571.125366 
	C463.738678,570.877869 464.562286,570.816223 465.049683,570.786438 
	C466.598267,570.691956 469.018768,571.051636 468.545624,572.525024 
	C467.248962,576.562866 476.578613,577.935425 470.761871,582.779968 
	C467.515411,585.483826 469.014130,589.002258 470.215698,592.535522 
z"/>
<path fill="#000000" opacity="1.000000" stroke="none" 
	d="
M287.396576,583.811035 
	C285.071869,590.656616 286.190216,592.442871 292.452637,592.165161 
	C294.724518,592.064453 295.938110,593.349854 296.591278,595.042297 
	C297.322235,596.936157 295.465424,597.551086 294.221710,598.266235 
	C292.744873,599.115417 291.087982,599.327454 289.395508,599.267639 
	C284.819214,599.105713 281.025757,596.091797 279.946564,591.753906 
	C278.462616,585.789124 280.171692,580.271912 284.222107,577.951660 
	C288.521179,575.488953 293.012207,576.147034 296.965942,579.982605 
	C295.644958,582.395264 294.295898,584.525513 290.901093,582.895996 
	C289.704254,582.321533 288.641052,582.899902 287.396576,583.811035 
z"/>
<path fill="#000000" opacity="1.000000" stroke="none" 
	d="
M242.656830,588.001892 
	C242.671371,585.013000 242.684189,582.516235 242.702560,580.019409 
	C242.717392,578.004272 243.729996,576.950012 245.749664,576.866943 
	C247.988602,576.774902 249.227722,577.798523 249.235931,580.083740 
	C249.255066,585.410156 249.251083,590.736755 249.232468,596.063171 
	C249.225555,598.038147 248.319794,599.150452 246.214539,599.194702 
	C243.969315,599.241821 242.760773,598.292786 242.740952,595.983948 
	C242.719528,593.487244 242.685852,590.990601 242.656830,588.001892 
z"/>
<path fill="#000000" opacity="1.000000" stroke="none" 
	d="
M243.788879,569.056763 
	C245.874191,568.783752 247.868561,567.803772 248.973297,569.982483 
	C249.506348,571.033813 249.418488,572.341187 248.669113,573.282593 
	C247.604065,574.620605 245.942825,574.606934 244.569366,574.103882 
	C241.959290,573.147888 242.520645,571.177734 243.788879,569.056763 
z"/>
</svg>